<svg xmlns="http://www.w3.org/2000/svg" width="800" height="450" viewBox="0 0 800 450">
  <rect width="800" height="450" fill="#18181b"/>
  <rect x="40" y="40" width="350" height="370" rx="12" fill="#27272a"/>
  <rect x="60" y="60" width="120" height="8" rx="4" fill="#f59e0b" opacity="0.6"/>
  <rect x="60" y="100" width="310" height="44" rx="8" fill="#3f3f46"/>
  <rect x="60" y="155" width="220" height="36" rx="8" fill="#3f3f46"/>
  <rect x="170" y="205" width="200" height="36" rx="8" fill="#f59e0b" opacity="0.15"/>
  <rect x="60" y="255" width="270" height="36" rx="8" fill="#3f3f46"/>
  <rect x="60" y="350" width="200" height="36" rx="10" fill="#f59e0b"/>
  <rect x="410" y="40" width="350" height="370" rx="12" fill="#27272a"/>
  <rect x="430" y="60" width="140" height="8" rx="4" fill="#52525b"/>
  <rect x="430" y="80" width="100" height="6" rx="3" fill="#3f3f46"/>
  <circle cx="430" cy="130" r="20" fill="#f59e0b" opacity="0.2"/>
  <rect x="462" y="120" width="200" height="8" rx="4" fill="#3f3f46"/>
  <rect x="462" y="134" width="150" height="6" rx="3" fill="#52525b"/>
  <circle cx="430" cy="180" r="20" fill="#52525b"/>
  <rect x="462" y="170" width="220" height="8" rx="4" fill="#3f3f46"/>
  <rect x="462" y="184" width="160" height="6" rx="3" fill="#52525b"/>
  <circle cx="430" cy="230" r="20" fill="#f59e0b" opacity="0.2"/>
  <rect x="462" y="220" width="180" height="8" rx="4" fill="#3f3f46"/>
  <rect x="462" y="234" width="200" height="6" rx="3" fill="#52525b"/>
</svg>
