<svg xmlns="http://www.w3.org/2000/svg" width="800" height="450" viewBox="0 0 800 450">
  <rect width="800" height="450" fill="#18181b"/>
  <rect x="40" y="40" width="720" height="80" rx="8" fill="#27272a"/>
  <rect x="60" y="60" width="100" height="8" rx="4" fill="#f59e0b" opacity="0.6"/>
  <rect x="60" y="76" width="60" height="6" rx="3" fill="#52525b"/>
  <rect x="600" y="54" width="80" height="28" rx="6" fill="#f59e0b"/>
  <rect x="40" y="140" width="160" height="270" rx="8" fill="#27272a"/>
  <rect x="60" y="160" width="120" height="20" rx="4" fill="#f59e0b" opacity="0.15"/>
  <rect x="60" y="190" width="120" height="8" rx="4" fill="#3f3f46"/>
  <rect x="60" y="210" width="100" height="8" rx="4" fill="#3f3f46"/>
  <rect x="60" y="230" width="120" height="8" rx="4" fill="#3f3f46"/>
  <rect x="60" y="250" width="80" height="8" rx="4" fill="#3f3f46"/>
  <rect x="220" y="140" width="260" height="130" rx="8" fill="#27272a"/>
  <rect x="240" y="160" width="100" height="8" rx="4" fill="#52525b"/>
  <rect x="240" y="180" width="60" height="40" rx="6" fill="#f59e0b" opacity="0.15"/>
  <rect x="310" y="180" width="60" height="40" rx="6" fill="#3f3f46"/>
  <rect x="380" y="180" width="60" height="40" rx="6" fill="#3f3f46"/>
  <rect x="220" y="285" width="260" height="125" rx="8" fill="#27272a"/>
  <rect x="240" y="305" width="120" height="8" rx="4" fill="#52525b"/>
  <rect x="240" y="325" width="220" height="6" rx="3" fill="#3f3f46"/>
  <rect x="240" y="338" width="180" height="6" rx="3" fill="#3f3f46"/>
  <rect x="500" y="140" width="260" height="270" rx="8" fill="#27272a"/>
  <rect x="520" y="160" width="80" height="8" rx="4" fill="#52525b"/>
  <rect x="520" y="185" width="220" height="30" rx="6" fill="#3f3f46"/>
  <rect x="520" y="225" width="220" height="30" rx="6" fill="#3f3f46"/>
  <rect x="520" y="265" width="220" height="30" rx="6" fill="#f59e0b" opacity="0.15"/>
  <rect x="520" y="305" width="220" height="30" rx="6" fill="#3f3f46"/>
</svg>
