<svg xmlns="http://www.w3.org/2000/svg" width="800" height="450" viewBox="0 0 800 450">
  <rect width="800" height="450" fill="#18181b"/>
  <rect x="40" y="40" width="200" height="370" rx="8" fill="#27272a"/>
  <rect x="56" y="60" width="168" height="8" rx="4" fill="#3f3f46"/>
  <rect x="56" y="76" width="120" height="6" rx="3" fill="#52525b"/>
  <rect x="56" y="100" width="168" height="32" rx="6" fill="#f59e0b" opacity="0.15"/>
  <rect x="56" y="140" width="168" height="32" rx="6" fill="#3f3f46"/>
  <rect x="56" y="180" width="168" height="32" rx="6" fill="#3f3f46"/>
  <rect x="56" y="220" width="168" height="32" rx="6" fill="#3f3f46"/>
  <rect x="260" y="40" width="500" height="130" rx="8" fill="#27272a"/>
  <rect x="280" y="60" width="80" height="8" rx="4" fill="#f59e0b" opacity="0.6"/>
  <rect x="280" y="80" width="200" height="6" rx="3" fill="#52525b"/>
  <rect x="280" y="100" width="140" height="6" rx="3" fill="#3f3f46"/>
  <rect x="620" y="55" width="120" height="36" rx="6" fill="#f59e0b"/>
  <rect x="260" y="185" width="235" height="225" rx="8" fill="#27272a"/>
  <rect x="280" y="205" width="100" height="8" rx="4" fill="#3f3f46"/>
  <rect x="280" y="225" width="60" height="50" rx="6" fill="#f59e0b" opacity="0.2"/>
  <rect x="350" y="225" width="60" height="50" rx="6" fill="#3f3f46"/>
  <rect x="420" y="225" width="60" height="50" rx="6" fill="#3f3f46"/>
  <rect x="510" y="185" width="250" height="225" rx="8" fill="#27272a"/>
  <rect x="530" y="205" width="120" height="8" rx="4" fill="#3f3f46"/>
  <rect x="530" y="225" width="210" height="6" rx="3" fill="#52525b"/>
  <rect x="530" y="238" width="170" height="6" rx="3" fill="#52525b"/>
  <rect x="530" y="260" width="210" height="6" rx="3" fill="#3f3f46"/>
  <rect x="530" y="273" width="150" height="6" rx="3" fill="#3f3f46"/>
</svg>
