<svg xmlns="http://www.w3.org/2000/svg" width="800" height="450" viewBox="0 0 800 450">
  <rect width="800" height="450" fill="#18181b"/>
  <rect x="40" y="40" width="220" height="370" rx="8" fill="#27272a"/>
  <rect x="56" y="60" width="80" height="8" rx="4" fill="#52525b"/>
  <rect x="56" y="80" width="190" height="70" rx="6" fill="#3f3f46"/>
  <rect x="56" y="162" width="190" height="70" rx="6" fill="#3f3f46"/>
  <rect x="56" y="244" width="190" height="70" rx="6" fill="#f59e0b" opacity="0.1"/>
  <rect x="56" y="326" width="190" height="70" rx="6" fill="#3f3f46"/>
  <rect x="280" y="40" width="220" height="370" rx="8" fill="#27272a"/>
  <rect x="296" y="60" width="100" height="8" rx="4" fill="#52525b"/>
  <rect x="296" y="80" width="190" height="70" rx="6" fill="#3f3f46"/>
  <rect x="296" y="162" width="190" height="70" rx="6" fill="#3f3f46"/>
  <rect x="296" y="244" width="190" height="70" rx="6" fill="#3f3f46"/>
  <rect x="520" y="40" width="240" height="370" rx="8" fill="#27272a"/>
  <rect x="536" y="60" width="80" height="8" rx="4" fill="#52525b"/>
  <rect x="536" y="80" width="210" height="70" rx="6" fill="#3f3f46"/>
  <rect x="536" y="162" width="210" height="70" rx="6" fill="#3f3f46"/>
  <circle cx="710" cy="55" r="14" fill="#22c55e" opacity="0.6"/>
  <circle cx="690" cy="55" r="14" fill="#f59e0b" opacity="0.6"/>
  <circle cx="670" cy="55" r="14" fill="#3b82f6" opacity="0.6"/>
</svg>
